<svg width="482" height="478" viewBox="0 0 432 428" fill="none" xmlns="http://www.w3.org/2000/svg">
<g clip-path="url(#clip0)">
<path d="M339.75 203L369 239.75L339.75 276.5H281.25L252 239.75L281.25 203H339.75Z" fill="#A0B4FF" fill-opacity="0.5"/>
</g>
<path d="M339.75 203L369 239.75L339.75 276.5H281.25L252 239.75L281.25 203H339.75Z" fill="#A0B4FF" fill-opacity="0.5"/>
<path d="M87.75 158L117 194.75L87.75 231.5H29.25L0 194.75L29.25 158H87.75Z" fill="#A0B4FF" fill-opacity="0.75"/>
<path d="M245.75 82L275 118.75L245.75 155.5H187.25L158 118.75L187.25 82H245.75Z" fill="#A0B4FF" fill-opacity="0.5"/>
<path d="M339.75 123L369 159.75L339.75 196.5H281.25L252 159.75L281.25 123H339.75Z" fill="#A0B4FF" fill-opacity="0.5"/>
<path d="M432.75 81L462 117.75L432.75 154.5H374.25L345 117.75L374.25 81H432.75Z" fill="#A0B4FF" fill-opacity="0.25"/>
<path d="M337.75 42L367 78.75L337.75 115.5H279.25L250 78.75L279.25 42H337.75Z" fill="#A0B4FF" fill-opacity="0.25"/>
<path d="M429.75 0L459 36.75L429.75 73.5H371.25L342 36.75L371.25 0H429.75Z" fill="#A0B4FF" fill-opacity="0.25"/>
<path d="M106.186 169.708L77 133.355V250.491L106.186 290.883V169.708Z" fill="#FF7991"/>
<path d="M160.914 169.702H106.189V290.877H160.914V169.702Z" fill="#FF899E"/>
<path d="M190.095 133.355L160.908 169.708V290.883L190.095 250.491V133.355Z" fill="#FF7991"/>
<path d="M106.187 97L77.001 133.353L106.187 169.705H160.912L190.098 133.353L159.088 97H106.187Z" fill="#FFA6A6"/>
<path d="M191.061 235.136L160.901 198.783V271.488L191.061 311.88V235.136Z" fill="#FFC43C"/>
<path d="M247.607 235.138H191.059V311.882H247.607V235.138Z" fill="#FFCE5C"/>
<path d="M274 198.783L247.61 235.136V311.88L274 271.488V198.783Z" fill="#FFC43C"/>
<path d="M191.061 162.431L160.901 198.784L191.061 235.136H247.609L273.999 198.784L245.724 162.431H191.061Z" fill="#FFE482"/>
<path d="M107.383 300.843L78.1963 264.49V308.922L107.383 349.313V300.843Z" fill="#817FF1"/>
<path d="M162.11 300.84H107.386V349.311H162.11V300.84Z" fill="#8E8CF6"/>
<path d="M191.291 264.49L162.104 300.843V349.313L191.291 312.961V264.49Z" fill="#817FF1"/>
<path d="M107.386 228.139L78.1992 264.491L107.386 300.844H162.11L191.297 264.491L162.11 228.139H107.386Z" fill="#B2B0FF"/>
<path d="M159.75 354L189 390.75L159.75 427.5H101.25L72 390.75L101.25 354H159.75Z" fill="#A0B4FF" fill-opacity="0.75"/>
<path d="M252.75 317L282 353.75L252.75 390.5H194.25L165 353.75L194.25 317H252.75Z" fill="#A0B4FF" fill-opacity="0.75"/>
<defs>
<clipPath id="clip0">
<rect width="117" height="84" fill="white" transform="translate(253 197)"/>
</clipPath>
</defs>
</svg>