<svg width="371" height="320" viewBox="0 0 371 320" fill="none" xmlns="http://www.w3.org/2000/svg">
<path d="M246.75 86L276 122.75L246.75 159.5H188.25L159 122.75L188.25 86H246.75Z" fill="#A0B4FF" fill-opacity="0.25"/>
<path d="M61.75 7L91 43.75L61.75 80.5H3.25L-26 43.75L3.25 7H61.75Z" fill="#A0B4FF" fill-opacity="0.25"/>
<path d="M246.75 165L276 201.75L246.75 238.5H188.25L159 201.75L188.25 165H246.75Z" fill="#A0B4FF" fill-opacity="0.25"/>
<path d="M154.75 126L184 162.75L154.75 199.5H96.25L67 162.75L96.25 126H154.75Z" fill="#A0B4FF" fill-opacity="0.5"/>
<path d="M61.75 86L91 122.75L61.75 159.5H3.25L-26 122.75L3.25 86H61.75Z" fill="#A0B4FF" fill-opacity="0.5"/>
<path d="M62.75 165L92 201.75L62.75 238.5H4.25L-25 201.75L4.25 165H62.75Z" fill="#A0B4FF" fill-opacity="0.75"/>
<path d="M154.75 204L184 240.75L154.75 277.5H96.25L67 240.75L96.25 204H154.75Z" fill="#A0B4FF" fill-opacity="0.5"/>
<path d="M246.75 246L276 282.75L246.75 319.5H188.25L159 282.75L188.25 246H246.75Z" fill="#A0B4FF" fill-opacity="0.25"/>
<path d="M341.75 204L371 240.75L341.75 277.5H283.25L254 240.75L283.25 204H341.75Z" fill="#A0B4FF" fill-opacity="0.25"/>
</svg>